<svg version="1" xmlns="http://www.w3.org/2000/svg" width="682.667" height="682.667" viewBox="0 0 512.000000 512.000000"><path d="M219 2.6c-91.5 14-167.7 74.3-201.4 159.6-13 32.9-18.4 65-17.3 102.1.9 30.5 6 56.5 16.4 83.2C21.6 360 31.9 381 33.2 381c1.1 0 52.5-29.5 54.2-31 .5-.5-.9-4.4-3.2-9.2-13.6-28-19.5-53-19.6-83.8-.1-27.3 4.3-49.7 14.4-74.3 9.3-22.7 21.9-41.5 40.4-60.6 28.5-29.3 64.4-48.1 104.6-55l10.5-1.8.3-32.1L235 1l-3.2.1c-1.8.1-7.6.7-12.8 1.5zM277.2 33.2l.3 32.1 10.1 1.8c31.9 5.4 61.4 18.4 86.9 38.3 9.7 7.6 26.2 24.4 34.1 34.8 44.1 58.5 51.4 135 19.2 200.4-4 8.1-4.2 8.7-2.5 9.9 3.7 2.7 52.5 30.5 53.5 30.5 1.4 0 11.7-21.3 17.1-35.3 5-13 11.3-37 13.6-52.2 2.3-15.1 3.1-45.3 1.6-61.2C499.9 114.2 409.3 19.2 291.8 2.5c-5.7-.8-11.3-1.5-12.6-1.5H277l.2 32.2z"/><path d="M320 245.5V342l21.3-.2 21.2-.3.3-96.3.2-96.2h-43v96.5zM256 267v75h43V192h-43v75zM192 288v54l21.3-.2 21.2-.3v-107l-21.2-.3-21.3-.2v54zM128 309.5V342l21.3-.2 21.2-.3.3-32.3.2-32.2h-43v32.5zM85.2 400.3c-15.5 8.9-28.1 16.5-27.9 16.9.8 2.3 16.8 19.5 25.5 27.4 42.5 38.5 93.6 61.2 149.6 66.5 15.7 1.4 46.9.6 61-1.6 29.9-4.7 57.9-13.9 82.6-27.1 11-6 31.3-19.5 41.8-27.9 12.6-10.2 38.5-36.6 37.1-37.9-.2-.2-13-7.6-28.3-16.4l-28-16.1-9.5 9.2c-29.5 28.5-63.2 45.3-104.6 52.3-12.5 2.1-40.3 2.4-53.5.5-40.9-5.7-78.1-23.7-107.6-52.3l-10-9.7-28.2 16.2z"/></svg>